<svg width="451" height="201" viewBox="0 0 451 201" fill="none" xmlns="http://www.w3.org/2000/svg">
<path d="M0.242188 160.938V138.271L88.8458 11.2324H125.237V134.845H149.761V160.938H125.237V201H95.702V160.938H0.242188ZM97.0205 41.8061L34.787 134.845H97.0205V41.8061Z" fill="#C4C4C4"/>
<path d="M175.34 102.426C175.34 72.0283 180.438 48.3074 190.634 31.2634C201.007 14.0438 218.763 5.43397 243.902 5.43397C269.042 5.43397 286.71 14.0438 296.906 31.2634C307.278 48.3074 312.464 72.0283 312.464 102.426C312.464 133.176 307.278 157.248 296.906 174.643C286.71 191.863 269.042 200.473 243.902 200.473C218.763 200.473 201.007 191.863 190.634 174.643C180.438 157.248 175.34 133.176 175.34 102.426ZM282.93 102.426C282.93 88.1937 281.963 76.1575 280.029 66.3177C278.271 56.4779 274.579 48.4831 268.954 42.3332C263.328 36.0076 254.978 32.8448 243.902 32.8448C232.827 32.8448 224.476 36.0076 218.851 42.3332C213.225 48.4831 209.445 56.4779 207.511 66.3177C205.753 76.1575 204.874 88.1937 204.874 102.426C204.874 117.186 205.753 129.574 207.511 139.589C209.269 149.605 212.961 157.687 218.587 163.837C224.388 169.987 232.827 173.062 243.902 173.062C254.978 173.062 263.328 169.987 268.954 163.837C274.755 157.687 278.535 149.605 280.293 139.589C282.051 129.574 282.93 117.186 282.93 102.426Z" fill="#C4C4C4"/>
<path d="M443.607 181.467L450.759 159.957L406.766 11.4715L372.232 0L333.226 117.303L309.953 109.573L301.72 134.334L324.992 142.065L312.35 180.082L340.377 189.392L353.019 151.375L443.607 181.467ZM389.361 37.9078L419.059 145.816L360.002 126.198L389.361 37.9078Z" fill="#C4C4C4"/>
</svg>
