<svg width="32" height="32" viewBox="0 0 32 32" fill="none" xmlns="http://www.w3.org/2000/svg">
<path d="M2.99997 16.0004C2.99997 15.7352 3.10533 15.4808 3.29286 15.2933C3.4804 15.1058 3.73475 15.0004 3.99997 15.0004L25.586 15.0004L17.293 6.70741C17.1108 6.5188 17.01 6.2662 17.0123 6.00401C17.0146 5.74181 17.1197 5.491 17.3052 5.30559C17.4906 5.12018 17.7414 5.01501 18.0036 5.01273C18.2658 5.01045 18.5184 5.11125 18.707 5.29341L28.707 15.2934C28.8944 15.4809 28.9998 15.7352 28.9998 16.0004C28.9998 16.2656 28.8944 16.5199 28.707 16.7074L18.707 26.7074C18.5184 26.8896 18.2658 26.9904 18.0036 26.9881C17.7414 26.9858 17.4906 26.8806 17.3052 26.6952C17.1197 26.5098 17.0146 26.259 17.0123 25.9968C17.01 25.7346 17.1108 25.482 17.293 25.2934L25.586 17.0004H3.99997C3.73475 17.0004 3.4804 16.8951 3.29286 16.7075C3.10533 16.52 2.99997 16.2656 2.99997 16.0004Z" fill="#7C7C7C"/>
</svg>
