<svg width="32" height="32" viewBox="0 0 32 32" fill="none" xmlns="http://www.w3.org/2000/svg">
<path d="M3 15.9999C3 15.7347 3.10536 15.4803 3.29289 15.2928C3.48043 15.1053 3.73478 14.9999 4 14.9999L25.586 14.9999L17.293 6.70692C17.1108 6.51832 17.01 6.26571 17.0123 6.00352C17.0146 5.74132 17.1198 5.49051 17.3052 5.3051C17.4906 5.11969 17.7414 5.01452 18.0036 5.01224C18.2658 5.00997 18.5184 5.11076 18.707 5.29292L28.707 15.2929C28.8945 15.4804 28.9998 15.7348 28.9998 15.9999C28.9998 16.2651 28.8945 16.5194 28.707 16.7069L18.707 26.7069C18.5184 26.8891 18.2658 26.9899 18.0036 26.9876C17.7414 26.9853 17.4906 26.8801 17.3052 26.6947C17.1198 26.5093 17.0146 26.2585 17.0123 25.9963C17.01 25.7341 17.1108 25.4815 17.293 25.2929L25.586 16.9999H4C3.73478 16.9999 3.48043 16.8946 3.29289 16.707C3.10536 16.5195 3 16.2651 3 15.9999Z" fill="#7C7C7C"/>
</svg>
