<svg width="160" height="35" viewBox="0 0 160 35" fill="none" xmlns="http://www.w3.org/2000/svg">
<g clip-path="url(#clip0_3606_32)">
<path d="M7.6277 25.8898C6.79811 26.8315 5.70396 27.3606 4.41025 27.3606C3.11655 27.3606 2.08741 26.8718 1.32509 26.0041C0.363224 24.8741 0 23.4795 0 21.8585H1.85648C1.85648 23.0647 2.08966 23.9683 2.71969 24.6858C3.18381 25.2127 3.78022 25.4772 4.41249 25.4772C5.20845 25.4772 5.83848 25.1768 6.33623 24.6118C6.83398 24.0468 7.09856 23.2172 7.09856 22.2374C7.09856 21.4459 6.96627 20.7665 6.63444 20.1657C6.27121 19.5244 5.73983 18.9975 4.94388 18.5065L2.82059 17.1881C1.76007 16.5088 0.995502 15.6433 0.632278 14.9258C0.300444 14.2106 0.168159 13.455 0.168159 12.5133C0.168159 11.0425 0.699542 9.80033 1.4955 8.89451C2.25782 8.02905 3.31834 7.57614 4.51339 7.57614C5.77346 7.57614 6.76896 7.99093 7.53353 8.85639C8.36311 9.79808 8.75997 11.1546 8.75997 13.0021H6.90349C6.90349 11.5694 6.70394 10.8541 6.1748 10.2129C5.71068 9.64786 5.11428 9.45952 4.51563 9.45952C3.78694 9.45952 3.19054 9.68598 2.75781 10.1748C2.22643 10.7398 2.02912 11.6456 2.02912 12.4371C2.02912 13.0783 2.12777 13.6433 2.35871 14.094C2.59189 14.585 3.15466 15.0357 3.91923 15.5267L6.00888 16.8832C7.10304 17.5984 7.83397 18.2778 8.29809 19.1455C8.76221 20.0109 8.95952 21.067 8.95952 22.1611C8.95503 23.6678 8.42365 24.9862 7.6277 25.8898Z" fill="white"/>
<path d="M19.4392 26.0041C18.8069 26.8337 17.9796 27.3606 16.8181 27.3606C16.0558 27.3606 15.4594 27.1723 14.8944 26.7575C14.5626 26.531 14.1657 26.04 13.9662 25.6274V34.7103H12.1097V7.87657H13.9325V9.42139C14.0985 9.0066 14.6298 8.4797 14.8944 8.25325C15.4594 7.80034 16.0558 7.57388 16.8181 7.57388C17.8473 7.57388 18.7419 8.02679 19.4392 8.93037C20.4661 10.2869 20.6993 12.6994 20.6993 17.4863C20.6993 22.2732 20.4683 24.6476 19.4392 26.0041ZM17.9796 10.325C17.6163 9.83394 17.0177 9.45727 16.3563 9.45727C15.7262 9.45727 15.1949 9.72184 14.7644 10.1725C14.2666 10.7375 13.9684 11.5671 13.9684 12.8115V22.1208C13.9684 23.3651 14.2666 24.2306 14.7644 24.7956C15.1949 25.2485 15.7262 25.475 16.3563 25.475C17.0177 25.475 17.6163 25.0983 17.9796 24.6095C18.7419 23.5535 18.8428 21.5939 18.8428 17.4863C18.8428 13.3787 18.7419 11.381 17.9796 10.325Z" fill="white"/>
<path d="M25.5108 17.7868C25.5108 21.706 25.6117 23.6275 26.3741 24.6095C26.7395 25.0983 27.3045 25.475 28.0646 25.475C28.7283 25.475 29.3247 25.2485 29.7574 24.7216C30.2552 24.1185 30.5197 23.1768 30.5197 22.0064H32.3448C32.3112 23.8539 31.9816 25.0221 31.1184 26.04C30.3875 26.9077 29.226 27.3584 28.0646 27.3584C26.7395 27.3584 25.7418 26.8696 25.0131 25.9638C23.8853 24.6073 23.6544 22.0827 23.6544 17.4841C23.6544 12.8855 23.8876 10.3227 25.0131 8.96625C25.7418 8.06268 26.7395 7.57166 28.0332 7.57166C29.3247 7.57166 30.3224 8.06044 31.0511 8.96625C32.2462 10.4371 32.3785 13.1501 32.3785 17.7845H25.5108V17.7868ZM29.6902 10.325C29.3247 9.83396 28.7956 9.45728 28.0332 9.45728C27.2709 9.45728 26.7059 9.83396 26.3404 10.325C25.6768 11.1927 25.5445 12.8496 25.5108 16.0917H30.5197C30.4884 12.8496 30.3538 11.1927 29.6902 10.325Z" fill="white"/>
<path d="M37.0892 17.7868C37.0892 21.706 37.1901 23.6275 37.9524 24.6095C38.3178 25.0983 38.8829 25.475 39.6452 25.475C40.3088 25.475 40.9052 25.2485 41.338 24.7216C41.8357 24.1185 42.1003 23.1768 42.1003 22.0064H43.9254C43.8918 23.8539 43.5622 25.0221 42.6989 26.04C41.968 26.9077 40.8066 27.3584 39.6452 27.3584C38.3201 27.3584 37.3223 26.8696 36.5936 25.9638C35.4659 24.6073 35.2349 22.0827 35.2349 17.4841C35.2349 12.8855 35.4681 10.3227 36.5936 8.96625C37.3223 8.06268 38.3178 7.57166 39.6138 7.57166C40.9052 7.57166 41.903 8.06044 42.6317 8.96625C43.8267 10.4371 43.959 13.1501 43.959 17.7845H37.0892V17.7868ZM41.2685 10.325C40.903 9.83396 40.3739 9.45728 39.6115 9.45728C38.8492 9.45728 38.2842 9.83396 37.9187 10.325C37.2551 11.1927 37.1228 12.8496 37.0892 16.0917H42.0981C42.0667 12.8496 41.9321 11.1927 41.2685 10.325Z" fill="white"/>
<path d="M53.5441 27.0579V25.5131C53.3782 25.9279 52.8804 26.4548 52.6136 26.6812C52.0508 27.1342 51.4522 27.3606 50.6899 27.3606C49.663 27.3606 48.7661 26.9077 48.0688 26.0041C47.0419 24.6476 46.8088 22.2732 46.8088 17.4863C46.8088 12.6994 47.0419 10.2869 48.0688 8.93037C48.6989 8.10078 49.5285 7.57389 50.6899 7.57389C51.4522 7.57389 52.0508 7.76222 52.6136 8.17702C52.9454 8.40347 53.3109 8.89225 53.5105 9.30705V0.224213H55.3669V27.0579H53.5441ZM53.5105 12.8137C53.5105 11.5693 53.2437 10.7398 52.7481 10.1747C52.3177 9.72184 51.7526 9.45951 51.1226 9.45951C50.4612 9.45951 49.8625 9.83619 49.4993 10.3272C48.737 11.3833 48.6697 13.381 48.6697 17.4885C48.6697 21.5961 48.737 23.5557 49.4993 24.6118C49.8625 25.1005 50.4612 25.4772 51.1226 25.4772C51.7526 25.4772 52.3177 25.2508 52.7481 24.7979C53.2459 24.2328 53.5105 23.3651 53.5105 22.123V12.8137Z" fill="white"/>
<path d="M84.2634 9.68372V27.0579H82.4069V9.68372H80.3509V8.02679H82.4069V5.27347C82.4069 3.50219 82.8374 2.25781 83.667 1.39236C84.6289 0.412549 85.8553 0.14798 87.149 0.14798V2.06948C85.2589 2.06948 84.2634 3.12327 84.2634 5.27123V8.02231H87.149V9.67924H84.2634V9.68372Z" fill="white"/>
<path d="M96.1735 27.0579V25.5131C95.974 25.9279 95.5099 26.4548 95.2117 26.6813C94.6803 27.0961 94.0503 27.3606 93.2879 27.3606C92.1601 27.3606 91.3328 26.9077 90.6333 26.0804C89.9696 25.2889 89.6064 24.197 89.6064 22.2732V7.87659H91.4628V22.3114C91.4628 24.4212 92.492 25.4391 93.7857 25.4391C95.0771 25.4391 96.1399 24.4212 96.1399 22.3114V7.87659H97.9986V27.0602H96.1735V27.0579Z" fill="white"/>
<path d="M108.646 27.0579V12.6232C108.646 10.5133 107.62 9.49539 106.324 9.49539C105.03 9.49539 103.967 10.5133 103.967 12.6232V27.0579H102.111V7.87434H103.934V9.41916C104.133 9.00437 104.597 8.47747 104.895 8.25102C105.427 7.83623 106.057 7.57166 106.819 7.57166C107.947 7.57166 108.777 8.06044 109.474 8.89002C110.137 9.68149 110.503 10.7375 110.503 12.659V27.0557H108.646V27.0579Z" fill="white"/>
<path d="M121.285 26.1162C120.554 26.9817 119.525 27.3606 118.299 27.3606C117.039 27.3606 115.909 26.8718 115.18 25.8539C114.153 24.4593 113.92 22.0087 113.92 17.4863C113.92 12.9639 114.153 10.5133 115.18 9.1187C115.909 8.10078 117.039 7.57388 118.299 7.57388C119.592 7.57388 120.554 7.87433 121.285 8.74203C122.279 9.87206 122.447 11.4169 122.478 12.9639H120.655C120.655 12.0223 120.588 11.0043 119.992 10.251C119.561 9.72408 119.061 9.45951 118.332 9.45951C117.604 9.45951 116.974 9.83618 116.608 10.3272C115.846 11.3832 115.779 13.381 115.779 17.4885C115.779 21.5961 115.846 23.5557 116.608 24.6118C116.971 25.1005 117.601 25.4772 118.332 25.4772C118.996 25.4772 119.527 25.2126 119.958 24.7239C120.554 24.0445 120.655 23.1409 120.655 22.0087H122.478C122.447 23.818 122.115 25.1364 121.285 26.1162Z" fill="white"/>
<path d="M127.556 25.8539C126.727 24.9885 126.296 23.706 126.296 21.9347V9.68598H124.238V8.02905H126.296V2.26007H128.153V8.02681H131.039V9.68373H128.153V21.9324C128.153 24.2306 129.213 25.1745 131.173 25.1745V27.0579C129.812 27.0579 128.552 26.9077 127.556 25.8539Z" fill="white"/>
<path d="M133.628 3.46632V0.753357H136.018V3.46632H133.628ZM133.895 27.0579V7.87433H135.751V27.0579H133.895Z" fill="white"/>
<path d="M146.83 25.8539C146.101 26.8718 145.072 27.3606 143.713 27.3606C142.355 27.3606 141.323 26.8718 140.594 25.8539C139.568 24.4593 139.334 22.0087 139.334 17.4863C139.334 12.9639 139.568 10.5133 140.594 9.1187C141.323 8.10078 142.352 7.57388 143.713 7.57388C145.074 7.57388 146.101 8.10078 146.83 9.1187C147.859 10.5133 148.09 12.9639 148.09 17.4863C148.09 22.0087 147.859 24.4593 146.83 25.8539ZM145.372 10.325C145.007 9.83394 144.444 9.45727 143.715 9.45727C142.987 9.45727 142.388 9.83394 142.023 10.325C141.26 11.381 141.193 13.3787 141.193 17.4863C141.193 21.5939 141.26 23.5535 142.023 24.6095C142.386 25.0983 142.985 25.475 143.715 25.475C144.446 25.475 145.007 25.0983 145.372 24.6095C146.135 23.5535 146.236 21.5939 146.236 17.4863C146.233 13.3787 146.135 11.381 145.372 10.325Z" fill="white"/>
<path d="M158.144 27.0579V12.6232C158.144 10.5133 157.117 9.49539 155.821 9.49539C154.527 9.49539 153.464 10.5133 153.464 12.6232V27.0579H151.608V7.87434H153.431V9.41916C153.63 9.00437 154.094 8.47747 154.392 8.25102C154.924 7.83623 155.554 7.57166 156.316 7.57166C157.444 7.57166 158.274 8.06044 158.971 8.89002C159.635 9.68149 160 10.7375 160 12.659V27.0557H158.144V27.0579Z" fill="white"/>
<path d="M74.7411 27.0579L72.7165 23.5916C71.1918 25.8158 69.7972 27.3606 67.0103 27.3606C64.2233 27.3606 61.8691 25.0243 61.8691 21.0289C61.8691 17.6746 63.1628 15.4886 66.1829 12.437C63.6628 8.3676 63.0328 7.27344 63.0328 5.1636C63.0328 2.71297 64.3242 0 67.3444 0C70.1627 0 71.656 1.99773 71.656 4.86092C71.656 8.02679 70.6291 9.68597 67.8085 12.6254L72.7501 21.0311C73.6783 19.3742 74.407 16.5087 74.5416 14.2106H75.8689C75.6357 17.3002 74.8398 20.1656 73.5124 22.3136L76.2994 27.0624H74.7411V27.0579ZM66.8466 13.5671C64.3578 16.2823 63.1964 18.3159 63.1964 20.8405C63.1964 23.5535 64.5552 26.0041 67.1448 26.0041C69.1358 26.0041 70.5618 24.4212 71.9878 22.3495L66.8466 13.5671ZM67.3444 1.31837C65.1874 1.31837 64.3579 3.46632 64.3579 5.12549C64.3579 6.78466 64.8556 7.80034 67.1448 11.4954C69.1358 9.3474 70.3286 7.80258 70.3286 4.93715C70.3309 2.82507 69.1022 1.31837 67.3444 1.31837Z" fill="white"/>
</g>
<defs>
<clipPath id="clip0_3606_32">
<rect width="160" height="35" fill="white"/>
</clipPath>
</defs>
</svg>
